# AST/ASF file generated using VICON BodyLanguage
# -----------------------------------------------
:version 1.10
:name VICON
:units
  mass 1.0
  length 0.45
  angle deg
:documentation
   .ast/.asf automatically generated from VICON data using
   VICON BodyBuilder and BodyLanguage model FoxedUp or BRILLIANT.MOD
:root
   order TX TY TZ RX RY RZ
   axis XYZ
   position 0 0 0  
   orientation 0 0 0 
:bonedata
  begin
     id 1 
     name lhipjoint
     direction 0.661853 -0.702389 0.261917 
     length 2.64193 
     axis 0 0 0  XYZ
  end
  begin
     id 2 
     name lfemur
     direction 0.34202 -0.939693 0  
     length 7.01722  
     axis 0 0 20  XYZ
    dof rx ry rz
    limits (-160.0 20.0)
           (-70.0 70.0)
           (-60.0 70.0)
  end
  begin
     id 3 
     name ltibia
     direction 0.34202 -0.939693 0   
     length 8.25008   
     axis 0 0 20   XYZ
    dof rx
    limits (-10.0 170.0)
  end
  begin
     id 4 
     name lfoot
     direction 0.0709916 -0.195048 0.978221   
     length 2.31941   
     axis -90 7.62852e-016 20   XYZ
    dof rx rz
    limits (-45.0 90.0)
           (-70.0 20.0)
  end
  begin
     id 5 
     name ltoes
     direction 1.53586e-011 -4.22017e-011 1   
     length 1.16486   
     axis -90 7.62852e-016 20   XYZ
    dof rx
    limits (-90.0 20.0)
  end
  begin
     id 6 
     name rhipjoint
     direction -0.638185 -0.721362 0.268992   
     length 2.57244  
     axis 0 0 0  XYZ 
  end
  begin
     id 7 
     name rfemur
     direction -0.34202 -0.939693 0   
     length 7.07017   
     axis 0 0 -20   XYZ
    dof rx ry rz
    limits (-160.0 20.0)
           (-70.0 70.0)
           (-70.0 60.0)
  end
  begin
     id 8 
     name rtibia
     direction -0.34202 -0.939693 0   
     length 8.20386   
     axis 0 0 -20   XYZ
    dof rx
    limits (-10.0 170.0)
 end
 begin
     id 9 
     name rfoot
     direction -0.0822429 -0.225961 0.970658   
     length 2.32215  
     axis -90 -7.62852e-016 -20   XYZ
    dof rx rz
    limits (-45.0 90.0)
           (-20.0 70.0)
  end
  begin
     id 10 
     name rtoes
     direction -1.53597e-011 -4.21689e-011 1   
     length 1.16333   
     axis -90 -7.62852e-016 -20   XYZ
    dof rx
    limits (-90.0 20.0)
  end
  begin
     id 11 
     name lowerback
     direction -0.0131557 0.998589 -0.0514484   
     length 2.14993   
     axis 0 0 0   XYZ
    dof rx ry rz
    limits (-20.0 45.0)
           (-30.0 30.0)
           (-30.0 30.0)
  end
  begin
     id 12 
     name upperback
     direction -0.000776481 0.999993 0.00352685   
     length 2.15301   
     axis 0 0 0   XYZ
    dof rx ry rz
    limits (-20.0 45.0)
           (-30.0 30.0)
           (-30.0 30.0)
  end
  begin
     id 13 
     name thorax
     direction 0.00438186 0.999609 0.0276143   
     length 2.15424   
     axis 0 0 0   XYZ
    dof rx ry rz
    limits (-20.0 45.0)
           (-30.0 30.0)
           (-30.0 30.0)
  end
  begin
     id 14 
     name lowerneck
     direction -0.0488006 0.998094 0.0377807   
     length 1.90481   
     axis 0 0 0   XYZ
    dof rx ry rz
    limits (-20.0 45.0)
           (-30.0 30.0)
           (-30.0 30.0)
  end
  begin
     id 15 
     name upperneck
     direction 0.0443769 0.990702 -0.12861   
     length 1.91305   
     axis 0 0 0   XYZ
    dof rx ry rz
    limits (-20.0 45.0)
           (-30.0 30.0)
           (-30.0 30.0)
  end
  begin
     id 16
     name head
     direction 0.0165599 0.998647 -0.0492982  
     length 1.92369  
     axis 0 0 0   XYZ
    dof rx ry rz
    limits (-20.0 45.0)
           (-30.0 30.0)
           (-30.0 30.0)
  end
  begin
     id 17 
     name lclavicle
     direction 0.911936 0.410197 -0.0105506  
     length 3.52622  
     axis 0 0 0   XYZ
    dof ry rz
    limits (-20.0 10.0)
           (0.0 20.0)
  end
  begin
     id 18 
     name lhumerus
     direction 1 -4.48974e-011 -2.48591e-028   
     length 5.47651   
     axis 180 -30 -90   XYZ
    dof rx ry rz
    limits (-60.0 90.0)
           (-90.0 90.0)
           (-90.0 90.0)
  end
  begin
     id 19
     name lradius
     direction 1 -4.48938e-011 -4.40099e-027   
     length 3.09058   
     axis 180 -30 -90   XYZ
    dof rx
    limits (-10.0 170.0)
  end
  begin
     id 20
     name lwrist
     direction 1 -4.49042e-011 -2.99852e-027   
     length 1.54529   
     axis 1.95339e-015 90 90   XYZ
    dof ry
    limits (-180.0 0.0)
 end
  begin
     id 21 
     name lhand
     direction 1 -4.48815e-011 -5.98193e-027   
     length 0.771611   
     axis 3.82337e-015 90 90   XYZ
    dof rx rz
    limits (-90.0 90.0)
           (-45.0 45.0)
  end
  begin
     id 22 
     name lfingers
     direction 1 -4.49034e-011 -1.1993e-026   
     length 0.622093   
     axis 7.64668e-015 90 90   XYZ
    dof rx
    limits (0.0 90.0)
  end
  begin
     id 23
     name lthumb
     direction 0.707107 -6.34867e-011 0.707107   
     length 0.893204   
     axis -90 45 -1.62303e-014   XYZ
    dof rx rz
    limits (-45.0 45.0)
           (-45.0 45.0)
  end
  begin
     id 24 
     name rclavicle
     direction -0.93442 0.355634 -0.0195692   
     length 3.62463  
     axis 0 0 0   XYZ 
    dof ry rz
    limits (-10.0 20.0)
           (-20.0 0.0)
  end
  begin
     id 25 
     name rhumerus
     direction -1 -4.48957e-011 -1.19147e-027  
     length 5.14182   
     axis 180 30 90   XYZ
    dof rx ry rz
    limits (-90.0 60.0)
           (-90.0 90.0)
           (-90.0 90.0)
  end
  begin
     id 26 
     name rradius
     direction -1 -4.48952e-011 -3.81062e-027   
     length 3.35565   
     axis 180 30 90   XYZ
    dof rx
    limits (-10.0 170.0)
  end
  begin
     id 27 
     name rwrist
     direction -1 -4.48973e-011 -2.99621e-027   
     length 1.67782   
     axis 1.95339e-015 -90 -90   XYZ
    dof ry
    limits (-180.0 0.0)
  end
  begin
     id 28
     name rhand
     direction -1 -4.48895e-011 -5.98727e-027   
     length 0.801042   
     axis 3.82337e-015 -90 -90   XYZ
    dof rx rz
    limits (-90.0 90.0)
           (-45.0 45.0)
  end
  begin
     id 29
     name rfingers
     direction -1 -4.49065e-011 -1.19972e-026   
     length 0.645821   
     axis 7.64668e-015 -90 -90   XYZ
    dof rx
    limits (0.0 90.0)
  end
  begin
     id 30
     name rthumb
     direction -0.707107 -6.34957e-011 0.707107   
     length 0.927273   
     axis -90 -45 1.62303e-014   XYZ
    dof rx rz
    limits (-45.0 45.0)
           (-45.0 45.0)
  end
:hierarchy
  begin
    root lhipjoint rhipjoint lowerback
    lhipjoint lfemur
    lfemur ltibia
    ltibia lfoot
    lfoot ltoes
    rhipjoint rfemur
    rfemur rtibia
    rtibia rfoot
    rfoot rtoes
    lowerback upperback
    upperback thorax
    thorax lowerneck lclavicle rclavicle
    lowerneck upperneck
    upperneck head
    lclavicle lhumerus
    lhumerus lradius
    lradius lwrist
    lwrist lhand lthumb
    lhand lfingers
    rclavicle rhumerus
    rhumerus rradius
    rradius rwrist
    rwrist rhand rthumb
    rhand rfingers
  end

#!OML:ASF E:\Style4\Style4.ASF
:FULLY-SPECIFIED
:DEGREES
1
root -1.20808 18.2377 -0.629997 7.60025 0.676693 1.83762
lowerback 5.74765 0.416648 0.492358
upperback 0.399384 0.585929 -0.0193985
thorax -2.80569 0.285458 -0.34356
lowerneck -4.72848 -9.90543 -7.1934
upperneck 1.52707 -12.9901 6.00256
head 2.25973 -6.42225 2.64668
rclavicle -1.3418e-015 1.98785e-015
rhumerus -39.8929 8.34414 -85.7878
rradius 47.4524
rwrist -13.715
rhand -9.95132 15.0036
rfingers 7.12502
rthumb 16.0305 -14.3532
lclavicle -1.3418e-015 1.98785e-015
lhumerus -42.829 -34.2724 102.739
lradius 45.5376
lwrist 12.9443
lhand -13.6365 30.5041
lfingers 7.12502
lthumb 12.4796 60.1115
rfemur -12.6509 5.4111 21.1976
rtibia 18.126
rfoot -12.8216 -15.4748
rtoes -4.78236
lfemur -12.1689 -7.80736 -15.6867
ltibia 16.2349
lfoot -11.5774 15.5646
ltoes -17.0059
2
root -1.20853 18.2343 -0.620252 7.55842 0.754589 1.78995
lowerback 5.64672 0.425023 0.553655
upperback 0.366896 0.601387 0.00968247
thorax -2.78217 0.292591 -0.348549
lowerneck -4.69353 -9.91692 -7.24267
upperneck 1.55707 -13.0076 6.04198
head 2.27211 -6.43106 2.668
rclavicle -9.59136e-015 1.03368e-014
rhumerus -39.8502 8.25532 -85.7625
rradius 47.6031
rwrist -13.8065
rhand -10.1589 15.2726
rfingers 7.12502
rthumb 15.8306 -14.1001
lclavicle -9.59136e-015 1.03368e-014
lhumerus -42.9202 -34.2122 102.813
lradius 45.507
lwrist 13.035
lhand -13.8329 30.1341
lfingers 7.12502
lthumb 12.2902 59.7529
rfemur -12.5717 5.29436 21.2744
rtibia 18.1443
rfoot -12.8643 -15.4653
rtoes -5.0102
lfemur -11.8734 -7.88912 -15.6795
ltibia 15.8462
lfoot -11.4648 15.7881
ltoes -17.8725
3
root -1.21177 18.2324 -0.613956 7.46234 0.858283 1.7003
lowerback 5.64563 0.41332 0.581764
upperback 0.348548 0.589688 0.0784851
thorax -2.80103 0.286714 -0.292694
lowerneck -4.67635 -9.9274 -7.26068
upperneck 1.55514 -13.0228 6.07037
head 2.27336 -6.43849 2.68034
rclavicle -6.60959e-015 -4.77083e-015
rhumerus -39.7618 8.1497 -85.6951
rradius 47.7455
rwrist -13.6123
rhand -10.1624 15.4336
rfingers 7.12502
rthumb 15.8272 -13.9394
lclavicle -6.60959e-015 -4.77083e-015
lhumerus -42.9728 -33.9838 102.768
lradius 45.5418
lwrist 13.0342
lhand -13.4691 30.0664
lfingers 7.12502
lthumb 12.641 59.6639
rfemur -12.4446 5.25912 21.4108
rtibia 18.1625
rfoot -12.9046 -15.5522
rtoes -4.9374
lfemur -11.4951 -7.89937 -15.6126
ltibia 15.341
lfoot -11.3864 15.9198
ltoes -17.6217
4
root -1.21404 18.2287 -0.605008 7.32422 0.892277 1.68926
lowerback 5.67078 0.406116 0.521504
upperback 0.332807 0.577443 0.110412
thorax -2.83238 0.281434 -0.225347
lowerneck -4.67963 -9.8896 -7.15646
upperneck 1.59781 -12.9769 6.00216
head 2.27072 -6.41595 2.64205
rclavicle 4.17448e-015 8.74653e-015
rhumerus -39.731 8.12531 -85.7159
rradius 47.9357
rwrist -13.613
rhand -10.1913 15.2754
rfingers 7.12502
rthumb 15.7995 -14.0998
lclavicle 4.17448e-015 8.74653e-015
lhumerus -42.9867 -33.5862 102.616
lradius 45.5899
lwrist 12.9834
lhand -13.0874 29.8991
lfingers 7.12502
lthumb 13.0089 59.4735
rfemur -12.2521 5.27289 21.4527
rtibia 18.1532
rfoot -12.9374 -15.6008
rtoes -4.87275
lfemur -11.0594 -7.98519 -15.6379
ltibia 14.8659
lfoot -11.4748 16.1468
ltoes -16.9458
5
root -1.21274 18.225 -0.591494 7.14594 0.834805 1.66105
lowerback 5.65722 0.432136 0.502537
upperback 0.347716 0.611543 0.138341
thorax -2.80967 0.298892 -0.188496
lowerneck -4.63549 -9.8516 -7.07105
upperneck 1.61188 -12.9311 5.92394
head 2.25071 -6.39463 2.60672
rclavicle -1.54058e-015 1.19271e-015
rhumerus -39.6978 8.08588 -85.7167
rradius 48.0677
rwrist -13.6701
rhand -10.4209 15.1117
rfingers 7.12502
rthumb 15.5783 -14.2809
lclavicle -1.54058e-015 1.19271e-015
lhumerus -42.982 -33.3111 102.542
lradius 45.5618
lwrist 13.0635
lhand -12.937 29.6135
lfingers 7.12502
lthumb 13.1539 59.1786
rfemur -11.9997 5.21529 21.5053
rtibia 18.1237
rfoot -12.9288 -15.5078
rtoes -5.04523
lfemur -10.5279 -8.08635 -15.6621
ltibia 14.41
lfoot -11.475 16.4145
ltoes -17.2581
6
root -1.2117 18.2211 -0.580801 7.01673 0.833293 1.57794
lowerback 5.58334 0.461193 0.558687
upperback 0.366717 0.654279 0.175998
thorax -2.74823 0.3199 -0.183865
lowerneck -4.56006 -9.86335 -7.08413
upperneck 1.61216 -12.9525 5.96019
head 2.24287 -6.40592 2.62332
rclavicle -2.5842e-015 -6.36111e-015
rhumerus -39.5856 7.99165 -85.667
rradius 48.2056
rwrist -13.7195
rhand -10.3829 15.0541
rfingers 7.12502
rthumb 15.6149 -14.3357
lclavicle -2.5842e-015 -6.36111e-015
lhumerus -42.9559 -33.2282 102.539
lradius 45.4742
lwrist 13.1515
lhand -12.7196 29.5941
lfingers 7.12502
lthumb 13.3634 59.1455
rfemur -11.8176 5.16852 21.6085
rtibia 18.109
rfoot -12.9611 -15.4537
rtoes -5.03406
lfemur -10.084 -8.14973 -15.5969
ltibia 13.9644
lfoot -11.3142 16.4445
ltoes -17.6207
7
root -1.21152 18.2183 -0.574631 6.93265 0.937674 1.49904
lowerback 5.5347 0.446873 0.59238
upperback 0.340552 0.638735 0.232416
thorax -2.74833 0.312036 -0.143216
lowerneck -4.46928 -9.86317 -7.15822
upperneck 1.64283 -12.9587 6.04747
head 2.25074 -6.4094 2.66811
rclavicle 7.55382e-015 -3.57812e-015
rhumerus -39.5095 8.00156 -85.6508
rradius 48.3804
rwrist -13.8787
rhand -10.2584 15.1145
rfingers 7.12502
rthumb 15.7348 -14.2658
lclavicle 7.55382e-015 -3.57812e-015
lhumerus -42.9963 -33.1387 102.577
lradius 45.3727
lwrist 13.1503
lhand -12.5218 29.6702
lfingers 7.12502
lthumb 13.5541 59.209
rfemur -11.6737 5.09223 21.7138
rtibia 18.0778
rfoot -13.0195 -15.465
rtoes -4.74745
lfemur -9.77731 -8.20919 -15.5072
ltibia 13.6037
lfoot -11.1691 16.3216
ltoes -17.4438
8
root -1.21079 18.2155 -0.568652 6.87368 1.04603 1.47161
lowerback 5.47654 0.442266 0.599637
upperback 0.315455 0.633284 0.251178
thorax -2.74176 0.309332 -0.127176
lowerneck -4.4838 -9.86724 -7.13695
upperneck 1.71489 -12.9673 6.05063
head 2.27667 -6.41307 2.66267
rclavicle 4.72114e-015 -3.57812e-015
rhumerus -39.4791 7.94024 -85.6518
rradius 48.5625
rwrist -13.9529
rhand -10.4046 15.2517
rfingers 7.12502
rthumb 15.594 -14.1397
lclavicle 4.72114e-015 -3.57812e-015
lhumerus -43.0666 -33.0929 102.579
lradius 45.3232
lwrist 13.1258
lhand -12.3828 29.5847
lfingers 7.12502
lthumb 13.6881 59.1146
rfemur -11.5417 4.94404 21.7679
rtibia 18.0343
rfoot -13.0541 -15.4284
rtoes -4.70424
lfemur -9.54963 -8.24542 -15.4709
ltibia 13.3366
lfoot -11.0503 16.2048
ltoes -17.5996
9
root -1.21056 18.2141 -0.560003 6.76279 1.08926 1.43829
lowerback 5.43509 0.465976 0.60796
upperback 0.32309 0.665042 0.253287
thorax -2.7104 0.325168 -0.131701
lowerneck -4.59887 -9.87899 -6.9983
upperneck 1.85152 -12.9843 5.94642
head 2.32421 -6.4202 2.59502
rclavicle 7.40473e-015 -3.97569e-015
rhumerus -39.4495 7.78137 -85.6548
rradius 48.7362
rwrist -13.9481
rhand -10.6082 15.3948
rfingers 7.12502
rthumb 15.3979 -14.0117
lclavicle 7.40473e-015 -3.97569e-015
lhumerus -43.0491 -33.0764 102.535
lradius 45.234
lwrist 13.103
lhand -12.2616 29.6333
lfingers 7.12502
lthumb 13.8049 59.1552
rfemur -11.3612 4.85143 21.8235
rtibia 18.0171
rfoot -13.1028 -15.385
rtoes -4.83253
lfemur -9.27015 -8.19294 -15.4418
ltibia 13.1142
lfoot -11.098 16.094
ltoes -17.4446
10
root -1.21137 18.2122 -0.551543 6.6454 1.11448 1.38692
lowerback 5.41634 0.484489 0.589261
upperback 0.313577 0.689136 0.277095
thorax -2.71006 0.337513 -0.0984435
lowerneck -4.56897 -9.87159 -6.85488
upperneck 1.84169 -12.9801 5.8478
head 2.29512 -6.41926 2.54049
rclavicle 6.5102e-015 1.19271e-014
rhumerus -39.4005 7.63991 -85.6587
rradius 48.8473
rwrist -14.041
rhand -10.7333 15.5551
rfingers 7.12502
rthumb 15.2774 -13.8607
lclavicle 6.5102e-015 1.19271e-014
lhumerus -43.0062 -32.915 102.429
lradius 45.1484
lwrist 12.9135
lhand -11.8086 29.926
lfingers 7.12502
lthumb 14.2415 59.4177
rfemur -11.2167 4.84819 21.8973
rtibia 18.0386
rfoot -13.1666 -15.4153
rtoes -4.85785
lfemur -9.00142 -8.05044 -15.3959
ltibia 12.908
lfoot -11.0609 15.9496
ltoes -17.6902
11
root -1.21185 18.211 -0.545048 6.56829 1.20266 1.38483
lowerback 5.36784 0.4591 0.523039
upperback 0.289606 0.651507 0.292447
thorax -2.70869 0.319655 -0.042315
lowerneck -4.40093 -9.84818 -6.75633
upperneck 1.67718 -12.9575 5.81629
head 2.19774 -6.41083 2.52721
rclavicle -7.65321e-015 1.19271e-015
rhumerus -39.3376 7.55714 -85.6998
rradius 48.932
rwrist -14.193
rhand -10.5047 15.9043
rfingers 7.12502
rthumb 15.4976 -13.4946
lclavicle -7.65321e-015 1.19271e-015
lhumerus -42.9308 -32.7021 102.291
lradius 45.0186
lwrist 12.6858
lhand -11.0688 30.4278
lfingers 7.12502
lthumb 14.9542 59.8679
rfemur -11.102 4.817 21.9161
rtibia 18.0387
rfoot -13.1854 -15.4803
rtoes -4.89517
lfemur -8.82637 -7.9335 -15.3929
ltibia 12.7607
lfoot -10.9366 15.7302
ltoes -18.0995
12
root -1.21193 18.2093 -0.540183 6.51543 1.33152 1.47504
lowerback 5.32024 0.431575 0.372782
upperback 0.252861 0.605614 0.290977
thorax -2.72158 0.298599 0.0441809
lowerneck -4.26719 -9.84169 -6.7815
upperneck 1.58897 -12.9537 5.84876
head 2.14887 -6.41086 2.5511
rclavicle -3.97569e-015 0
rhumerus -39.3079 7.46793 -85.7136
rradius 49.0575
rwrist -14.2059
rhand -10.0687 16.0598
rfingers 7.12502
rthumb 15.9175 -13.306
lclavicle -3.97569e-015 0
lhumerus -42.8655 -32.5447 102.194
lradius 44.8924
lwrist 12.4365
lhand -10.577 30.5867
lfingers 7.12502
lthumb 15.428 59.991
rfemur -11.0126 4.77166 21.8377
rtibia 18.0574
rfoot -13.1981 -15.5923
rtoes -5.07797
lfemur -8.70688 -7.77671 -15.4926
ltibia 12.6196
lfoot -10.7171 15.4865
ltoes -18.7234
